PathFileType	4	(X/Y/Z)	C:\Github\BTS_project\Data\sports2d_results\test4 Exam_2026-03-06_143128_tvc2_Sports2D\test4 Exam_2026-03-06_143128_tvc2_Sports2D_m_person00.trc
DataRate	CameraRate	NumFrames	NumMarkers	Units	OrigDataRate	OrigDataStartFrame	OrigNumFrames
30.0	30.0	7	22	m	30.0	240	321
Frame#	Time	Hip			RHip			RKnee			RAnkle			RBigToe			RSmallToe			RHeel			LHip			LKnee			LAnkle			LBigToe			LSmallToe			LHeel			Neck			Head			Nose			RShoulder			RElbow			RWrist			LShoulder			LElbow			LWrist			
		X1	Y1	Z1	X2	Y2	Z2	X3	Y3	Z3	X4	Y4	Z4	X5	Y5	Z5	X6	Y6	Z6	X7	Y7	Z7	X8	Y8	Z8	X9	Y9	Z9	X10	Y10	Z10	X11	Y11	Z11	X12	Y12	Z12	X13	Y13	Z13	X14	Y14	Z14	X15	Y15	Z15	X16	Y16	Z16	X17	Y17	Z17	X18	Y18	Z18	X19	Y19	Z19	X20	Y20	Z20	X21	Y21	Z21	X22	Y22	Z22
240	8.024999999999999	2.1619492833126817	0.5585246796832287	0.0301	2.0535555868020308	0.630214218878214	0.0301	1.7515265859063895	0.32216444995140625	0.129	1.4990082260411681	0.005113508016683009	0.023	1.429332963284238	-0.08483881192234917	0.2179	1.3922922416032397	-0.035244690908494504	0.1804	1.505784032100195	-0.03998265730143391	-0.0119	2.25411151875225	0.456209728180024	0.0301	2.0166460359358966	0.13172926966943635	0.129	1.7887799365347103	0.05969273354973588	0.023	1.7590564126169366	-0.1230998289436854	0.2179	1.8054940588325106	-0.11980369514741784	0.1804	1.7543860914028873	0.0801736712610165	-0.0119	2.597547777668043	1.046773453324114	0.0008	2.8053266131971135	1.2971007115991633	0.0655	2.6849508435492395	1.1662802667804355	0.1076	2.3612340204358375	1.114369303439206	-0.01275	2.0726255430178746	1.1531995892140656	0.0702	1.7932822873154317	1.2524524248747462	0.1076	2.7042632715039803	0.8212856630381506	-0.01275	2.8012713686070616	0.5606986371114377	0.0702	2.992122374860305	0.3579653207526086	0.1076
241	8.058437499999998	2.162311980631822	0.5570715878336565	0.0301	2.048839107002352	0.6261656360624652	0.0301	1.7502949636091374	0.31617720273991906	0.129	1.4974899601669673	0.004581122261308752	0.023	1.4309997883577794	-0.08390683871863842	0.2179	1.3908732028757997	-0.0352865201636331	0.1804	1.5007771664340683	-0.04153506047978771	-0.0119	2.2501377155072335	0.4515751798684851	0.0301	2.0147013266598157	0.13244190526076655	0.129	1.7935795775433072	0.07651546927288826	0.023	1.7541131341426675	-0.09675793647466958	0.2179	1.801228216320291	-0.09628341973429025	0.1804	1.7612108283149872	0.09849058530056272	-0.0119	2.6029063999783384	1.046693474428289	0.0008	2.814791844844045	1.2936440214049205	0.0655	2.696236309668188	1.1695996782644276	0.1076	2.3675857183174234	1.11710905223476	-0.01275	2.0780629972610236	1.1642359684276147	0.0702	1.8042161912696466	1.269714242924869	0.1076	2.7086946451770735	0.8210925351399313	-0.01275	2.801904879535803	0.5591886739814245	0.0702	2.990008613496767	0.3543186794334189	0.1076
242	8.091874999999998	2.1653141687404114	0.5589049901474986	0.0301	2.0485356961191243	0.6260024925079563	0.0301	1.7519800528440423	0.3159517472043996	0.129	1.4992604141101333	0.007719179453418267	0.023	1.4373747476070198	-0.08335886645558598	0.2179	1.3938873967787293	-0.03391465652450255	0.1804	1.4997251438031873	-0.038065533541021185	-0.0119	2.2461743805125884	0.4503321155142686	0.0301	2.0131037616189467	0.13249154970908988	0.129	1.8001635169065404	0.09422703277196845	0.023	1.7419720294661205	-0.06180690572715058	0.2179	1.7928148353196773	-0.06598672144910217	0.1804	1.7702679167114663	0.11937347627049022	-0.0119	2.608538099788243	1.0476422126139475	0.0008	2.820780709396915	1.2912719540425692	0.0655	2.706681145882783	1.1711755770381747	0.1076	2.3721228142660356	1.1200324280367955	-0.01275	2.083409768560574	1.175403988172551	0.0702	1.8141447039294716	1.2869346258569003	0.1076	2.712788145561229	0.8198264672940571	-0.01275	2.8011224211836527	0.5583440177788855	0.0702	2.9816703083716285	0.3462687455452454	0.1076
243	8.125312499999998	2.1681462039834916	0.5628636414264062	0.0301	2.053305434256344	0.6313013393272532	0.0301	1.7556810879496196	0.3186140345117513	0.129	1.5013081473950673	0.010119560337416473	0.023	1.439207593632138	-0.08800342535425863	0.2179	1.3934650426847142	-0.03702930033412563	0.1804	1.5000587261085085	-0.03373690218303943	-0.0119	2.2441602964503033	0.4536172177869939	0.0301	2.0114388850231473	0.13384156419920945	0.129	1.8041693753459462	0.10888820971464612	0.023	1.7270591980868482	-0.03135737807851518	0.2179	1.7820394203821939	-0.04104133888861078	0.1804	1.777444333008471	0.13695605595195548	-0.0119	2.615953419709867	1.0518775584974585	0.0008	2.8239694835043583	1.2903059094229516	0.0655	2.714651219019213	1.1706736400203979	0.1076	2.376791227376865	1.1233452971488038	-0.01275	2.089646066096883	1.185425475166638	0.0702	1.8213259019570378	1.3046959257382853	0.1076	2.7165681291412556	0.8198598874675326	-0.01275	2.799418707361462	0.5578533316458092	0.0702	2.969788205226622	0.33693046298992324	0.1076
244	8.15875	2.168208034312049	0.5659251245264385	0.0301	2.056351826058146	0.6370059163079695	0.0301	1.757796562417424	0.32026881303561994	0.129	1.5021482152637804	0.009511632312234279	0.023	1.4347480677276743	-0.09410448137695726	0.2179	1.3884474322049647	-0.04166075325489194	0.1804	1.499117923581547	-0.03357963908795098	-0.0119	2.2428139354539387	0.45721589432865717	0.0301	2.0095675414744933	0.13643298268063034	0.129	1.8029966593221227	0.1204104093927178	0.023	1.7149674715880698	-0.010332540327773018	0.2179	1.7724189725168276	-0.024417895100416052	0.1804	1.7792109459731218	0.1486303795116887	-0.0119	2.6218735083477833	1.0554454714345072	0.0008	2.8271455551781144	1.2879897219043892	0.0655	2.7195303766941774	1.1684596848567483	0.1076	2.3810969555192796	1.1259852715529788	-0.01275	2.09471188377686	1.1936778186528154	0.0702	1.8251095485086835	1.322554735432932	0.1076	2.719358603737207	0.8202292102980816	-0.01275	2.797340519122182	0.5552127738973179	0.0702	2.9568778319570197	0.3283930681958074	0.1076
245	8.1921875	2.1677531396116616	0.5681369950616096	0.0301	2.0554064562618035	0.6395843388917357	0.0301	1.7580000103450057	0.3211937848370833	0.129	1.5035383850848247	0.009168099774178285	0.023	1.432346350755107	-0.09425103710336476	0.2179	1.386713256784318	-0.038851802438583626	0.1804	1.4987231902036104	-0.035266046681405455	-0.0119	2.2423048663401377	0.45924973826202553	0.0301	2.008238021225466	0.140107109711105	0.129	1.7997004541829003	0.13013433463943389	0.023	1.7073092762030662	0.006219994111769418	0.2179	1.765413940067583	-0.010835011503559021	0.1804	1.7765492765810995	0.15661461047963693	-0.0119	2.6229516577682936	1.053372934187919	0.0008	2.8321038097956124	1.2827988846447487	0.0655	2.722033421090156	1.1644461547574951	0.1076	2.383683756873144	1.1278607868282544	-0.01275	2.096855968175265	1.1994383644918787	0.0702	1.8284555763625003	1.33775974816231	0.1076	2.7202008745010198	0.8189320782566717	-0.01275	2.794628789822592	0.5501017392438641	0.0702	2.9433778020231287	0.3217790426676813	0.1076
246	8.225624999999999	2.170141293962132	0.5714883067009521	0.0301	2.0563115892559614	0.6409347119337452	0.0301	1.7588700390495524	0.3238972713965795	0.129	1.505496824529305	0.010625071551447915	0.023	1.4321594248987521	-0.09187403916019873	0.2179	1.387474050928372	-0.03145647932008361	0.1804	1.4990626716514728	-0.03538166759211799	-0.0119	2.245211863939035	0.46186202179304986	0.0301	2.007206500141042	0.14530707460350142	0.129	1.7983623244145122	0.1374918227793476	0.023	1.7012827546975942	0.01944605247107897	0.2179	1.7595465110631576	0.0017187861685196806	0.1804	1.7737736185878565	0.16310704466298825	-0.0119	2.6214597209310693	1.0482528440526147	0.0008	2.8372046935280237	1.277298465886032	0.0655	2.7239574923828536	1.1596079120633531	0.1076	2.3853375462177167	1.1297918480421087	-0.01275	2.0981459404930676	1.2031988552286261	0.0702	1.834675760922444	1.3481928089921462	0.1076	2.7187272218507945	0.816876552940058	-0.01275	2.791298567483744	0.5452566245438164	0.0702	2.9296306768194085	0.31679394190616683	0.1076
